<svg width="605" height="133" viewBox="0 0 605 133" fill="none" xmlns="http://www.w3.org/2000/svg">
<path fill-rule="evenodd" clip-rule="evenodd" d="M12.6676 108.953C12.6676 108.953 15.9362 109.844 18.4804 109.846C21.0247 109.847 24.1604 108.953 24.1604 108.953C24.1604 108.953 24.1551 35.7478 24.1551 35.0096C19.5139 40.1258 12.6676 40.1258 12.6676 40.1258V51.9548L0.338493 74.3821L4.38734 77.6637L12.6676 62.5287V108.953Z" fill="#F9D8FF"/>
<path fill-rule="evenodd" clip-rule="evenodd" d="M82.5922 110.934C82.5922 110.934 80.1493 111.817 76.0898 111.816C72.0304 111.815 69.7091 110.934 69.7091 110.934C69.7091 110.934 69.7091 36.3802 69.7091 35.642C73.213 41.1062 82.5922 42.1064 82.5922 42.1064V75.4738L94.9213 53.0465L90.8724 49.7649L82.5922 64.8999V110.934Z" fill="#5245D5"/>
<path d="M54.7315 131.326V62.3398C54.7315 62.3398 51.5464 64.2066 48.3814 64.2066C45.2165 64.2066 42.0372 62.3398 42.0372 62.3398V69.443V87.882L33.757 72.934L29.5256 76.0346L42.0372 98.6441V131.326C42.0372 131.326 45.9578 132.212 48.5074 132.199C50.9618 132.186 54.7315 131.326 54.7315 131.326Z" fill="#D858CB"/>
<path d="M54.7315 57.9584V0.09375C54.7315 0.09375 52.9854 2.41957 49.4078 3.49283C45.8303 4.56609 42.0372 4.42289 42.0372 4.42289V27.0261L33.757 12.0781L29.5256 15.1787L42.0372 37.7882V57.9584C42.0372 57.9584 44.0504 59.8127 48.2149 59.8127C52.3793 59.8127 54.7315 57.9584 54.7315 57.9584Z" fill="#D858CB"/>
<path fill-rule="evenodd" clip-rule="evenodd" d="M333.858 91.242C336.696 92.3213 339.794 92.8609 343.151 92.8609C346.549 92.8609 349.647 92.3213 352.445 91.242C355.283 90.1628 357.741 88.6438 359.82 86.6852C361.899 84.7265 363.517 82.4281 364.677 79.7899C365.876 77.1117 366.475 74.1938 366.475 71.0359C366.475 67.8781 365.876 64.9801 364.677 62.3419C363.517 59.7037 361.899 57.4053 359.82 55.4466C357.741 53.448 355.283 51.9091 352.445 50.8298C349.647 49.7506 346.549 49.2109 343.151 49.2109C339.794 49.2109 336.696 49.7506 333.858 50.8298C331.02 51.9091 328.542 53.448 326.423 55.4466C324.344 57.4053 322.726 59.7037 321.566 62.3419C320.407 64.9801 319.828 67.8781 319.828 71.0359C319.828 74.1938 320.407 77.0918 321.566 79.7299C322.726 82.3681 324.344 84.6865 326.423 86.6852C328.542 88.6438 331.02 90.1628 333.858 91.242ZM347.588 82.1882C346.229 82.7479 344.75 83.0277 343.151 83.0277C341.553 83.0277 340.054 82.7479 338.655 82.1882C337.295 81.6286 336.096 80.8292 335.057 79.7899C334.058 78.7106 333.258 77.4315 332.659 75.9525C332.099 74.4736 331.819 72.8347 331.819 71.0359C331.819 69.1972 332.099 67.5583 332.659 66.1193C333.258 64.6403 334.058 63.3812 335.057 62.3419C336.096 61.2626 337.295 60.4432 338.655 59.8836C340.054 59.324 341.553 59.0442 343.151 59.0442C344.75 59.0442 346.229 59.324 347.588 59.8836C348.987 60.4432 350.187 61.2626 351.186 62.3419C352.225 63.3812 353.025 64.6403 353.584 66.1193C354.184 67.5583 354.484 69.1972 354.484 71.0359C354.484 72.8347 354.184 74.4736 353.584 75.9525C353.025 77.4315 352.225 78.7106 351.186 79.7899C350.187 80.8292 348.987 81.6286 347.588 82.1882Z" fill="white"/>
<path fill-rule="evenodd" clip-rule="evenodd" d="M125.481 92.0215V50.0504H146.946C152.462 50.0504 156.579 51.0697 159.297 53.1083C162.015 55.1069 163.375 57.7451 163.375 61.0228C163.375 63.1813 162.795 65.08 161.636 66.7189C160.673 68.0948 159.354 69.2338 157.681 70.1361C157.945 70.2301 158.204 70.3301 158.458 70.4363C160.656 71.3157 162.355 72.6148 163.554 74.3337C164.794 76.0125 165.413 78.0711 165.413 80.5094C165.413 84.1469 163.934 86.985 160.976 89.0236C158.058 91.0222 153.781 92.0215 148.145 92.0215H125.481ZM137.233 83.4474H147.186C149.224 83.4474 150.763 83.1076 151.802 82.4281C152.882 81.7086 153.421 80.6293 153.421 79.1903C153.421 77.7513 152.882 76.692 151.802 76.0125C150.763 75.293 149.224 74.9332 147.186 74.9332H137.233V83.4474ZM137.233 58.6245V66.7189H145.387C147.386 66.7189 148.884 66.3791 149.884 65.6996C150.883 65.0201 151.383 64.0008 151.383 62.6417C151.383 61.2826 150.883 60.2833 149.884 59.6438C148.884 58.9642 147.386 58.6245 145.387 58.6245H137.233Z" fill="white"/>
<path fill-rule="evenodd" clip-rule="evenodd" d="M166.526 92.0215L185.053 50.0504H196.745L215.332 92.0215H202.981L199.708 83.8671H181.91L178.637 92.0215H166.526ZM190.809 61.693L196.195 75.1131H185.423L190.809 61.693Z" fill="white"/>
<path d="M218.698 50.0504V92.0215H229.67V70.3758L240.403 87.8843H245.679L256.486 69.7528L256.592 92.0215H267.504L267.384 50.0504H257.611L243.245 74.2997L228.471 50.0504H218.698Z" fill="white"/>
<path fill-rule="evenodd" clip-rule="evenodd" d="M275.904 92.0215V50.0504H297.37C302.886 50.0504 307.003 51.0697 309.721 53.1083C312.439 55.1069 313.798 57.7451 313.798 61.0228C313.798 63.1813 313.219 65.08 312.06 66.7189C311.096 68.0948 309.778 69.2338 308.105 70.1361C308.369 70.2301 308.628 70.3301 308.882 70.4363C311.08 71.3157 312.779 72.6148 313.978 74.3337C315.217 76.0125 315.837 78.0711 315.837 80.5094C315.837 84.1469 314.358 86.985 311.4 89.0236C308.482 91.0222 304.205 92.0215 298.569 92.0215H275.904ZM287.656 83.4474H297.61C299.648 83.4474 301.187 83.1076 302.226 82.4281C303.306 81.7086 303.845 80.6293 303.845 79.1903C303.845 77.7513 303.306 76.692 302.226 76.0125C301.187 75.293 299.648 74.9332 297.61 74.9332H287.656V83.4474ZM287.656 58.6245V66.7189H295.811C297.809 66.7189 299.308 66.3791 300.308 65.6996C301.307 65.0201 301.807 64.0008 301.807 62.6417C301.807 61.2826 301.307 60.2833 300.308 59.6438C299.308 58.9642 297.809 58.6245 295.811 58.6245H287.656Z" fill="white"/>
<path fill-rule="evenodd" clip-rule="evenodd" d="M393.859 92.8609C390.501 92.8609 387.403 92.3213 384.565 91.242C381.727 90.1628 379.249 88.6438 377.13 86.6852C375.052 84.6865 373.433 82.3681 372.274 79.7299C371.114 77.0918 370.535 74.1938 370.535 71.0359C370.535 67.8781 371.114 64.9801 372.274 62.3419C373.433 59.7037 375.052 57.4053 377.13 55.4466C379.249 53.448 381.727 51.9091 384.565 50.8298C387.403 49.7506 390.501 49.2109 393.859 49.2109C397.256 49.2109 400.354 49.7506 403.152 50.8298C405.99 51.9091 408.449 53.448 410.527 55.4466C412.606 57.4053 414.225 59.7037 415.384 62.3419C416.583 64.9801 417.183 67.8781 417.183 71.0359C417.183 74.1938 416.583 77.1117 415.384 79.7899C414.225 82.4281 412.606 84.7265 410.527 86.6852C408.449 88.6438 405.99 90.1628 403.152 91.242C400.354 92.3213 397.256 92.8609 393.859 92.8609ZM393.859 83.0277C395.458 83.0277 396.937 82.7479 398.296 82.1882C399.695 81.6286 400.894 80.8292 401.893 79.7899C402.933 78.7106 403.732 77.4315 404.292 75.9525C404.891 74.4736 405.191 72.8347 405.191 71.0359C405.191 69.1972 404.891 67.5583 404.292 66.1193C403.732 64.6403 402.933 63.3812 401.893 62.3419C400.894 61.2626 399.695 60.4432 398.296 59.8836C396.937 59.324 395.458 59.0442 393.859 59.0442C392.26 59.0442 390.761 59.324 389.362 59.8836C388.003 60.4432 386.804 61.2626 385.764 62.3419C384.765 63.3812 383.966 64.6403 383.366 66.1193C382.806 67.5583 382.527 69.1972 382.527 71.0359C382.527 72.8347 382.806 74.4736 383.366 75.9525C383.966 77.4315 384.765 78.7106 385.764 79.7899C386.804 80.8292 388.003 81.6286 389.362 82.1882C390.761 82.7479 392.26 83.0277 393.859 83.0277Z" fill="white"/>
<path d="M468.859 50.0508V92.0219H479.832V70.3762L490.565 87.8848H495.841L506.648 69.7532L506.753 92.0219H517.666L517.546 50.0508H507.773L493.407 74.3001L478.633 50.0508H468.859Z" fill="white"/>
<path fill-rule="evenodd" clip-rule="evenodd" d="M539.557 50.0508L521.03 92.0219H533.141L536.414 83.8675H554.212L557.485 92.0219H569.836L551.249 50.0508H539.557ZM550.699 75.1135L545.313 61.6934L539.927 75.1135H550.699Z" fill="white"/>
<path d="M580.028 92.0219V59.4643H567.137V50.0508H604.731V59.4643H591.9V92.0219H580.028Z" fill="white"/>
<path d="M460.486 65.2676V73.0816H446.065L450.051 76.7137L447.975 79.1695L439.374 73.0816H425.732V65.2676L460.486 65.2676Z" fill="white"/>
</svg>
