<svg width="100" height="133" viewBox="0 0 100 133" fill="none" xmlns="http://www.w3.org/2000/svg">
<path fill-rule="evenodd" clip-rule="evenodd" d="M12.6676 108.953C12.6676 108.953 15.9362 109.844 18.4804 109.846C21.0247 109.847 24.1604 108.953 24.1604 108.953C24.1604 108.953 24.1551 35.7478 24.1551 35.0096C19.5139 40.1258 12.6676 40.1258 12.6676 40.1258V51.9548L0.338493 74.3821L4.38734 77.6637L12.6676 62.5287V108.953Z" fill="#F9D8FF"/>
<path fill-rule="evenodd" clip-rule="evenodd" d="M82.5922 110.934C82.5922 110.934 80.1493 111.817 76.0898 111.816C72.0304 111.815 69.7091 110.934 69.7091 110.934C69.7091 110.934 69.7091 36.3802 69.7091 35.642C73.213 41.1062 82.5922 42.1064 82.5922 42.1064V75.4738L94.9213 53.0465L90.8724 49.7649L82.5922 64.8999V110.934Z" fill="#5245D5"/>
<path d="M54.7315 131.326V62.3398C54.7315 62.3398 51.5464 64.2066 48.3814 64.2066C45.2165 64.2066 42.0372 62.3398 42.0372 62.3398V69.443V87.882L33.757 72.934L29.5256 76.0346L42.0372 98.6441V131.326C42.0372 131.326 45.9578 132.212 48.5074 132.199C50.9618 132.186 54.7315 131.326 54.7315 131.326Z" fill="#D858CB"/>
<path d="M54.7315 57.9584V0.09375C54.7315 0.09375 52.9854 2.41957 49.4078 3.49283C45.8303 4.56609 42.0372 4.42289 42.0372 4.42289V27.0261L33.757 12.0781L29.5256 15.1787L42.0372 37.7882V57.9584C42.0372 57.9584 44.0504 59.8127 48.2149 59.8127C52.3793 59.8127 54.7315 57.9584 54.7315 57.9584Z" fill="#D858CB"/>
</svg>
